<svg width="32" height="32" viewBox="0 0 32 32" fill="none" xmlns="http://www.w3.org/2000/svg">
  <path
    d="M10.2 12.7877C10.0875 12.8439 9.93754 12.9689 9.86254 13.0752C9.68754 13.3189 9.63754 13.8439 9.76879 14.0939C9.82504 14.1939 11.1438 15.5439 12.7 17.1002C15.7688 20.1564 15.6563 20.0689 16.2375 19.9627C16.4375 19.9252 16.8188 19.5752 19.3 17.1002C20.8563 15.5439 22.175 14.2002 22.225 14.1064C22.425 13.7252 22.275 13.1127 21.925 12.8564C21.7188 12.7127 21.2938 12.6439 21.0188 12.7064C20.9 12.7377 20.0563 13.5377 18.4188 15.1689L16 17.5877L13.6063 15.2002C12.2938 13.8939 11.1563 12.7877 11.0813 12.7502C10.8875 12.6502 10.4375 12.6689 10.2 12.7877Z"
    fill="currentColor" />
</svg>