<svg width="63" height="63" viewBox="0 0 63 63" fill="none" xmlns="http://www.w3.org/2000/svg">
  <path
    d="M1.72272 12.2678C0.812177 12.4277 0.0492859 12.5754 0.0369813 12.6C0.0246766 12.6123 0.147723 13.449 0.307684 14.458C2.26413 26.6273 3.69147 41.5037 3.69147 49.674V51.0645H5.53718H7.38288V49.674C7.38288 48.259 7.21061 43.8293 7.06296 41.3684L6.97683 39.9902H12.7846H18.5801V45.5273V51.0645H20.4258H22.2839L22.2469 43.0418C22.21 35.1914 22.21 34.9945 21.9516 34.4531C21.6071 33.7148 20.9426 33.1488 20.0813 32.8904C19.4415 32.6936 18.7647 32.6689 12.8954 32.6689H6.39851L6.33698 32.1768C6.30007 31.9061 6.1278 30.3557 5.95554 28.7314C5.46335 24.0926 4.78659 19.0969 3.78991 12.8215C3.71608 12.3416 3.59304 11.9355 3.51921 11.9478C3.44538 11.9478 2.63327 12.0955 1.72272 12.2678Z"
    fill="currentColor" />
  <path
    d="M59.2103 12.8215C58.2136 19.0969 57.5368 24.0926 57.0446 28.7314C56.8724 30.3557 56.7001 31.9061 56.6632 32.1768L56.6017 32.6689H50.1048C44.2354 32.6689 43.5587 32.6936 42.9188 32.8904C42.0575 33.1488 41.3931 33.7148 41.0485 34.4531C40.7901 34.9945 40.7901 35.1914 40.7532 43.0418L40.7163 51.0645H42.5743H44.42V45.5273V39.9902H50.2155H56.0233L55.9372 41.3684C55.7772 44.0139 55.6173 48.1852 55.6173 49.6125V51.0645H57.463H59.3087V49.674C59.3087 41.7867 60.613 27.8701 62.4956 15.75C62.7663 14.0273 62.9632 12.6 62.9509 12.5877C62.9386 12.5631 59.4563 11.9355 59.3702 11.9355C59.3579 11.9355 59.2841 12.3416 59.2103 12.8215Z"
    fill="currentColor" />
  <path
    d="M14.8887 21.5332V25.2246H22.2715H29.6543V36.2988V47.373H27.8086H25.9629V49.2188V51.0645H31.5H37.0371V49.2188V47.373H35.1914H33.3457V36.2988V25.2246H40.7285H48.1113V21.5332V17.8418H31.5H14.8887V21.5332Z"
    fill="currentColor" />
</svg>