<svg width="40" height="40" viewBox="0 0 40 40" fill="none" xmlns="http://www.w3.org/2000/svg">
  <path
    d="M18.2423 0.117155C16.1095 0.44528 14.2033 1.46091 12.7111 3.04684C11.0705 4.78903 10.2189 6.80465 10.1017 9.21872C9.93766 12.5937 11.5939 15.8203 14.4533 17.6875C15.8595 18.6093 17.2111 19.0781 18.8517 19.2109C21.8908 19.4453 24.4845 18.4922 26.5783 16.3593C28.2423 14.6718 29.0861 12.8281 29.2892 10.4765C29.5705 7.3359 28.383 4.41403 26.0158 2.36716C24.4845 1.05466 23.0783 0.398405 21.133 0.117155C20.1955 -0.0156574 19.1017 -0.0234699 18.2423 0.117155Z"
    fill="currentColor" />
  <path
    d="M11.1485 19.3828C7.61724 19.7578 5.16411 22.289 4.02349 26.7578C3.26567 29.7344 3.07036 33.3125 3.55474 35.2734C3.95317 36.8437 5.25786 38.4375 6.76567 39.2031C7.44536 39.5469 8.42192 39.8281 9.24224 39.9219C9.72661 39.9844 13.4141 40 20.4688 39.9844L30.9766 39.9609L31.6407 39.7734C34.1094 39.1015 35.7969 37.4453 36.4141 35.1172C36.7344 33.9062 36.6954 31.0156 36.3204 28.7344C35.5 23.6562 33.4219 20.6094 30.1329 19.6562C29.3829 19.4375 28.0391 19.2734 27.6407 19.3515C27.2579 19.4219 26.7266 19.7031 25.5235 20.4765C24.2422 21.3047 24.0625 21.3984 23.1016 21.7578C21.9922 22.1719 21.0782 22.3515 20.0079 22.3515C18.9141 22.3515 18.0704 22.1953 16.961 21.8047C15.9141 21.4297 15.8672 21.4062 14.2266 20.3672C13.3672 19.8203 12.7266 19.4687 12.4766 19.3984C12.0391 19.289 12.0391 19.289 11.1485 19.3828Z"
    fill="currentColor" />
</svg>