<?xml version="1.0" standalone="no"?>
<!DOCTYPE svg PUBLIC "-//W3C//DTD SVG 20010904//EN"
 "http://www.w3.org/TR/2001/REC-SVG-20010904/DTD/svg10.dtd">
<svg version="1.0" xmlns="http://www.w3.org/2000/svg"
 width="512.000000pt" height="512.000000pt" viewBox="0 0 512.000000 512.000000"
 preserveAspectRatio="xMidYMid meet">

<g transform="translate(0.000000,512.000000) scale(0.100000,-0.100000)"
fill="#000000" stroke="none">
<path d="M3693 5096 c-107 -50 -280 -247 -369 -421 l-39 -75 -1417 0 c-996 0
-1433 -3 -1470 -11 -187 -39 -348 -200 -387 -387 -16 -75 -16 -3329 0 -3404
39 -187 200 -348 387 -387 36 -8 328 -11 925 -11 l872 0 83 -145 c100 -175
122 -201 187 -231 84 -39 174 -28 243 31 23 20 71 91 127 188 l90 157 872 0
c597 0 889 3 925 11 187 39 348 200 387 387 16 75 16 3329 0 3404 -39 187
-200 348 -387 387 -29 6 -144 11 -256 11 l-203 0 -24 52 c-75 164 -262 383
-372 438 -73 36 -106 37 -174 6z m182 -267 c107 -113 201 -273 231 -392 43
-166 -37 -332 -195 -406 -46 -21 -70 -26 -136 -26 -71 0 -89 4 -147 33 -152
74 -226 238 -183 402 34 132 155 323 271 429 l56 51 26 -19 c15 -10 50 -43 77
-72z m-642 -506 c3 -43 9 -88 13 -100 l6 -23 -1385 0 c-1053 0 -1392 -3 -1412
-12 -58 -26 -55 75 -55 -1688 0 -1763 -3 -1662 55 -1688 37 -17 1663 -17 1700
0 29 13 55 55 55 88 0 33 -26 75 -55 88 -19 9 -219 12 -790 12 l-765 0 0 1500
0 1500 1376 0 1376 0 60 -55 c208 -193 519 -192 729 3 l57 52 161 0 161 0 0
-1500 0 -1500 -765 0 c-832 0 -807 2 -833 -55 -15 -33 -15 -57 0 -90 26 -57
-4 -55 892 -55 618 0 832 3 851 12 58 26 55 -75 55 1688 0 1763 3 1662 -55
1688 -17 8 -86 12 -197 12 -158 0 -170 1 -163 18 3 9 9 54 12 100 l6 84 186
-4 c164 -3 191 -6 232 -24 66 -31 114 -78 146 -142 l28 -57 0 -1675 0 -1675
-21 -46 c-31 -66 -78 -114 -142 -146 l-57 -28 -930 -5 c-684 -4 -935 -8 -950
-17 -11 -6 -68 -94 -126 -195 -87 -149 -111 -183 -129 -183 -18 0 -41 34 -128
183 -59 101 -116 189 -127 195 -15 9 -263 13 -950 17 l-930 5 -57 28 c-64 32
-111 80 -142 146 l-21 46 -3 1645 c-2 1169 0 1660 8 1696 22 101 93 181 193
215 49 17 134 18 1438 19 l1386 0 6 -77z"/>
<path d="M1674 3051 c-30 -13 -64 -59 -64 -88 0 -34 22 -72 69 -117 l41 -40
-55 -57 c-59 -62 -67 -87 -40 -139 19 -36 43 -50 90 -50 30 0 46 9 91 51 l54
52 54 -52 c45 -42 61 -51 91 -51 47 0 71 14 90 50 27 52 19 77 -40 139 l-55
57 41 40 c76 73 87 123 40 176 -24 27 -36 33 -70 33 -36 0 -47 -7 -96 -55
l-55 -54 -53 52 c-54 53 -94 69 -133 53z"/>
<path d="M3074 3051 c-30 -13 -64 -59 -64 -88 0 -34 22 -72 69 -117 l41 -40
-55 -57 c-59 -62 -67 -87 -40 -139 19 -36 43 -50 90 -50 30 0 46 9 91 51 l54
52 54 -52 c45 -42 61 -51 91 -51 47 0 71 14 90 50 27 52 19 77 -40 139 l-55
57 41 40 c76 73 87 123 40 176 -24 27 -36 33 -70 33 -36 0 -47 -7 -96 -55
l-55 -54 -53 52 c-54 53 -94 69 -133 53z"/>
<path d="M2372 2281 c-101 -35 -209 -110 -235 -164 -34 -68 8 -137 84 -137 28
0 51 11 98 46 84 63 143 84 239 84 99 0 154 -19 239 -81 51 -37 76 -49 103
-49 46 0 76 21 90 65 18 54 -9 99 -98 162 -103 74 -199 103 -335 103 -86 0
-115 -5 -185 -29z"/>
<path d="M2511 986 c-87 -48 -50 -186 49 -186 51 0 100 49 100 99 0 75 -83
124 -149 87z"/>
</g>
</svg>
