<svg width="62" height="62" viewBox="0 0 62 62" fill="none" xmlns="http://www.w3.org/2000/svg">
  <path
    d="M29.7285 3.98398C29.0504 4.14141 28.0695 4.5168 27.452 4.88008C26.7012 5.32812 25.6477 6.39375 25.1996 7.19297C24.7758 7.93164 24.4367 8.23437 24.025 8.23437C23.8797 8.23437 23.3953 7.93164 22.9352 7.54414C20.6707 5.6914 17.9461 5.31602 15.4395 6.52695C11.2738 8.54922 10.3414 14.1074 13.6473 17.377C14.8703 18.5879 16.6867 19.375 18.2973 19.375C19.1934 19.375 19.1813 19.3508 20.1742 24.2793C20.6707 26.7496 21.1309 29.0504 21.2035 29.3895L21.3246 30.0312H23.2016H25.0664L25.0059 29.7527C24.9817 29.6074 24.8121 28.4812 24.6426 27.2461C24.4731 26.0109 24.3035 24.8605 24.2672 24.691C24.2067 24.3762 24.2188 24.3641 25.1391 24.2309C25.6477 24.1582 26.0957 24.1098 26.1078 24.134C26.132 24.1582 26.3137 25.3207 26.5195 26.7133C26.7133 28.1059 26.907 29.4258 26.9434 29.6316L27.016 30.0312H28.5176H30.0313V24.7031V19.375H31H31.9688V24.7031V30.0312H33.4824H34.984L35.0567 29.6316C35.093 29.4258 35.2867 28.1059 35.4805 26.7133C35.6863 25.3207 35.868 24.1582 35.8922 24.1219C35.9406 24.0734 37.6723 24.3156 37.7328 24.3762C37.7692 24.4004 37.1274 29.002 37.0063 29.6922L36.9457 30.0312H38.8106H40.6754L40.7965 29.3895C40.8692 29.0504 41.3293 26.7496 41.8258 24.2793C42.8188 19.3508 42.8067 19.375 43.7027 19.375C45.3254 19.375 47.166 18.5758 48.377 17.3527C51.6465 14.059 50.7262 8.54922 46.5727 6.53906C44.0539 5.31602 41.3293 5.6793 39.077 7.55625C37.866 8.54922 37.6602 8.50078 36.643 6.975C35.3473 5.0375 33.5914 4.03242 31.3027 3.93554C30.7094 3.91133 29.9949 3.93554 29.7285 3.98398Z"
    fill="currentColor" />
  <path
    d="M7.99219 27.2946C6.98711 27.5125 6.18789 27.9485 5.43711 28.6992C4.38359 29.7406 3.875 30.9395 3.875 32.3805C3.875 34.9114 5.66719 37.5028 8.29492 38.7379C10.184 39.634 12.3879 39.5613 14.277 38.5684C14.7129 38.3383 15.2094 38.1446 15.391 38.1446C15.609 38.1446 19.6293 40.9297 29.3652 47.8321C36.8731 53.1723 43.1699 57.6043 43.3637 57.7012C43.8117 57.9434 44.4898 57.9313 44.9984 57.6891C46.1973 57.1199 46.3426 55.3883 45.277 54.577C44.9258 54.3227 18.7695 37.5391 17.4012 36.7035C16.7473 36.3039 16.6867 36.1223 16.7836 34.7781C16.9289 32.5863 16.3113 30.9395 14.7855 29.4258C12.9207 27.5852 10.3535 26.7739 7.99219 27.2946Z"
    fill="currentColor" />
  <path
    d="M50.7624 27.3672C49.394 27.7305 48.2679 28.3844 47.2144 29.4258C45.6765 30.9516 45.071 32.5743 45.2284 34.8387C45.3011 36.0618 45.3011 36.086 44.9983 36.3524C44.8409 36.5098 42.0194 38.3383 38.7499 40.4332L32.8042 44.2477L34.0878 45.0711L35.3714 45.9067L40.8327 42.0196C44.514 39.4039 46.3788 38.1446 46.5847 38.1446C46.7542 38.1446 47.3233 38.3625 47.844 38.6168C49.055 39.2223 49.9026 39.4039 51.2831 39.3192C52.5667 39.2465 53.705 38.8711 54.7222 38.1809C59.2511 35.1172 59.2026 29.2078 54.6374 27.4883C53.6202 27.1008 51.9249 27.0524 50.7624 27.3672Z"
    fill="currentColor" />
  <path
    d="M21.9059 32.9375L22.0875 33.9062H31H39.9125L40.0942 32.9375L40.2879 31.9688H31H21.7122L21.9059 32.9375Z"
    fill="currentColor" />
  <path
    d="M21.5667 51.4407C18.8058 53.2208 16.4444 54.8192 16.3112 55.0008C15.9601 55.461 15.9116 56.3813 16.2022 56.9141C16.6503 57.7375 17.837 58.1129 18.6604 57.7012C18.8542 57.5922 19.9562 56.8415 21.1065 56.018C22.2569 55.2067 24.5214 53.5961 26.1562 52.4336C27.7909 51.2833 29.1714 50.3024 29.2198 50.254C29.2804 50.2055 28.8687 49.8543 28.3116 49.4668C27.7546 49.0793 27.1491 48.6434 26.9433 48.486L26.58 48.2196L21.5667 51.4407Z"
    fill="currentColor" />
</svg>