<svg width="271" height="266" viewBox="0 0 271 266" fill="none" xmlns="http://www.w3.org/2000/svg">
    <path
        d="M117.071 0.900131C90.1372 4.10014 61.2038 17.9668 40.1372 37.7001C23.8705 52.9001 9.47051 77.5668 3.47051 100.367C0.803841 110.767 0.137175 116.633 0.00384143 130.633C-0.129492 152.633 3.20384 169.833 10.6705 185.567C12.6705 189.833 16.6705 191.433 18.4038 188.633C18.8038 187.967 17.0705 181.167 14.5372 173.7C3.47051 140.9 5.20384 109.033 19.7372 79.1668C32.5372 52.7668 59.6038 27.3001 85.2038 17.5668C104.804 10.1001 114.404 8.23347 135.071 8.23347C159.337 8.10014 169.471 10.3668 193.071 21.3001C198.271 23.7001 207.337 29.3001 213.337 33.8335C224.137 41.9668 228.404 43.1668 228.404 37.9668C228.404 32.3668 197.871 13.1668 179.071 6.90015C161.604 1.03348 136.137 -1.49986 117.071 0.900131Z"
        fill="currentColor" />
    <path
        d="M156.804 37.7001C153.071 40.1001 153.871 48.1001 159.471 65.1668L165.204 82.5001L168.937 67.8335C170.937 59.8335 173.471 50.6335 174.537 47.4335C177.871 37.0335 177.604 36.6335 167.337 36.7668C162.271 36.7668 157.604 37.3001 156.804 37.7001Z"
        fill="currentColor" />
    <path
        d="M136.404 39.7001C133.07 40.3668 130.27 41.1668 130.004 41.3001C129.737 41.5668 133.07 53.3001 137.204 67.5668L144.804 93.4335L152.67 98.5001C161.737 104.367 167.87 112.1 170.137 120.233C170.937 123.433 172.27 125.967 173.204 125.967C174.004 125.967 168.937 108.5 160.937 84.5001C153.337 61.7001 147.07 42.1001 146.804 40.9001C146.27 38.1001 144.004 37.8335 136.404 39.7001Z"
        fill="currentColor" />
    <path
        d="M225.204 47.5668C224.804 48.5002 222.404 64.6335 219.737 83.3002C217.07 101.967 214.537 119.167 214.137 121.567L213.47 125.833L221.204 126.233C227.07 126.5 229.07 127.167 229.07 128.633C229.07 130.367 224.937 130.633 200.804 131.033C169.737 131.433 172.404 130.633 170.404 139.967C169.737 143.833 169.87 144.1 175.337 145.567C192.67 150.233 203.737 169.567 198.537 186.367C196.137 194.233 191.204 201.033 184.404 205.433C181.604 207.3 178.67 210.633 177.87 212.767C177.07 215.033 175.204 218.5 173.737 220.633L170.937 224.633H193.337C209.337 224.633 216.537 224.1 218.137 222.9C220.404 221.3 222.67 212.1 234.537 156.233C238.937 135.3 239.07 133.567 237.07 130.5C236.004 128.767 234.137 127.3 233.204 127.3C232.137 127.3 231.07 125.567 230.804 123.3C230.404 121.167 230.537 119.7 230.937 120.1C231.737 120.767 242.937 57.3002 243.07 51.8335C243.07 49.5668 242.004 48.7668 238.137 48.1002C235.337 47.5668 231.47 46.9002 229.337 46.5002C226.937 45.9668 225.604 46.3668 225.204 47.5668Z"
        fill="currentColor" />
    <path
        d="M177.871 51.9668C177.337 54.1001 174.804 63.8334 172.404 73.4334L168.004 90.9001L173.071 106.1C175.871 114.5 178.537 121.833 179.071 122.367C179.604 123.033 180.537 120.9 181.071 117.7C181.604 114.633 184.671 98.5001 187.871 81.9668C191.071 65.5668 193.737 51.3001 193.737 50.5001C193.737 49.4334 190.937 48.7668 186.404 48.3668C179.204 47.9668 178.937 48.1001 177.871 51.9668Z"
        fill="currentColor" />
    <path
        d="M204.137 55.5668C203.871 56.5001 203.337 60.1001 203.204 63.4335L202.937 69.5668L208.271 70.5001C212.137 71.0335 213.737 71.9668 213.737 73.5668C213.737 74.7668 211.604 86.7668 208.937 100.233C206.271 113.7 204.404 125.167 204.804 125.567C208.004 128.633 209.471 123.033 214.137 90.5001C216.804 71.5668 218.937 55.9668 218.671 55.8335C218.537 55.7001 215.337 55.1668 211.604 54.6335C206.537 53.9668 204.671 54.2335 204.137 55.5668Z"
        fill="currentColor" />
    <path
        d="M107.737 61.8334L101.071 63.9668L102.937 73.4334L104.671 82.9001L113.471 84.3668C118.271 85.1668 122.404 85.7001 122.537 85.5668C122.537 85.4334 120.804 79.5668 118.537 72.5001L114.404 59.8334L107.737 61.8334Z"
        fill="currentColor" />
    <path
        d="M126.137 67.3001C124.404 67.9668 123.071 69.0334 123.071 69.7001C123.071 72.5001 127.471 85.4334 128.804 86.7668C130.537 88.5001 139.071 91.5668 139.071 90.5001C139.071 87.3001 131.604 65.9668 130.537 66.1001C129.737 66.1001 127.737 66.6334 126.137 67.3001Z"
        fill="currentColor" />
    <path
        d="M248.804 66.9002C246.271 67.8335 246.671 69.4335 251.737 81.4335C271.071 126.367 264.937 172.9 234.804 210.767C210.404 241.567 167.737 260.1 127.071 257.567C107.737 256.367 84.2706 249.167 69.8706 240.1C63.204 235.833 59.7373 235.967 59.7373 240.633C59.7373 243.567 61.604 244.9 73.7373 250.9C106.671 267.3 144.271 269.833 180.404 257.833C220.537 244.633 254.804 208.633 265.604 168.367C274.004 137.433 271.471 105.3 258.671 77.4335C254.271 67.9668 252.137 65.7002 248.804 66.9002Z"
        fill="currentColor" />
    <path
        d="M189.871 96.2335C187.471 108.5 185.204 120.233 184.804 122.233C184.137 125.967 184.137 125.967 191.471 125.967H198.804L200.271 119.567C202.937 107.7 208.671 76.3668 208.137 75.9668C207.871 75.8335 204.671 75.1668 201.071 74.7668L194.404 73.8335L189.871 96.2335Z"
        fill="currentColor" />
    <path
        d="M75.7373 89.3001C58.1373 92.6334 48.1373 97.7001 38.1373 108.233C29.3373 117.433 25.0706 132.5 29.7373 137.167C30.8039 138.233 52.4039 138.633 98.8039 138.633H166.404L166.804 131.567C167.337 121.967 162.804 112.1 154.804 105.567C137.737 91.5668 102.404 84.2335 75.7373 89.3001ZM82.4039 105.3C82.4039 107.3 81.3373 108.1 78.0039 108.367C75.6039 108.633 72.6706 108.1 71.4706 107.167C69.7373 105.567 69.7373 105.3 72.0039 103.7C75.6039 100.9 82.4039 101.967 82.4039 105.3ZM133.471 105.7C134.137 107.967 127.871 110.5 123.871 109.433C119.604 108.367 119.337 104.9 123.337 103.433C126.804 102.1 132.671 103.433 133.471 105.7ZM107.737 113.3C107.737 115.433 106.671 116.1 102.671 116.367C99.0706 116.633 97.4706 116.233 96.8039 114.633C95.7373 111.7 98.6706 109.833 103.737 110.233C106.671 110.5 107.737 111.3 107.737 113.3ZM61.2039 118.233C62.2706 119.967 58.2706 123.3 55.0706 123.3C51.8706 123.3 47.8706 119.967 48.9373 118.233C49.4706 117.3 52.2706 116.633 55.0706 116.633C57.8706 116.633 60.6706 117.3 61.2039 118.233ZM152.404 117.967C154.137 119.167 154.004 119.567 151.871 121.3C147.204 124.9 139.204 123.033 140.804 118.767C141.737 116.367 149.204 115.833 152.404 117.967Z"
        fill="currentColor" />
    <path
        d="M30.8039 145.433C28.5372 147.833 28.6705 147.967 36.6705 149.567C47.3372 151.7 53.2039 155.833 62.5372 167.567C71.6039 178.9 73.3372 180.5 77.3372 180.633C79.4706 180.633 81.2039 178.9 83.8706 174.1C88.4039 165.567 93.6039 163.033 105.471 163.167C110.404 163.3 116.804 163.967 119.737 164.633C122.671 165.3 128.537 165.967 132.804 165.967C139.871 165.967 140.937 165.567 146.137 160.767C153.337 154.233 156.537 152.633 162.271 152.633C164.804 152.633 167.204 152.1 167.737 151.3C168.671 149.833 160.804 145.567 159.204 146.633C158.537 147.033 157.737 146.633 157.471 145.967C157.204 145.033 136.137 144.233 95.0705 143.833C36.2705 143.033 32.9372 143.167 30.8039 145.433Z"
        fill="currentColor" />
    <path
        d="M173.737 151.967C173.737 153.167 172.271 154.767 170.404 155.567L167.071 157.033L170.271 160.5C172.137 162.367 174.271 165.7 175.071 167.967C176.671 172.1 175.737 180.1 173.471 183.033C172.404 184.233 172.937 186.5 175.604 191.167C177.471 194.767 179.071 198.633 179.071 199.833C179.071 203.433 182.537 202.233 187.471 196.767C199.337 183.567 197.071 164.1 182.537 154.233C175.337 149.433 173.737 149.033 173.737 151.967Z"
        fill="currentColor" />
    <path
        d="M30.6705 156.633C23.7371 162.1 21.6038 173.433 25.6038 183.567L27.0705 187.3H93.7371C163.337 187.3 163.737 187.3 168.804 181.567C171.337 178.633 171.87 171.167 169.737 167.167C168.004 164.1 163.737 163.567 164.937 166.633C165.737 168.9 163.737 169.3 162.27 167.167C161.737 166.233 162.404 165.033 163.604 164.367C165.737 163.167 165.737 162.9 163.604 160.5C160.27 156.767 157.07 157.3 151.47 162.633C141.87 171.567 137.07 172.633 119.47 169.3C99.4705 165.433 93.4705 166.9 87.7371 176.633C83.7371 183.567 78.5371 186.767 74.0038 185.433C70.9371 184.367 64.6705 177.967 56.1371 167.3C50.5371 160.233 41.2038 153.967 36.2705 153.967C35.0705 153.967 32.5371 155.167 30.6705 156.633Z"
        fill="currentColor" />
    <path
        d="M165.204 190.233C163.337 191.3 143.071 191.7 95.6039 191.567L28.8039 191.433L25.6039 195.7C23.7373 198.367 22.4039 202.233 22.1373 206.633C21.4706 214.767 24.4039 220.233 32.5373 225.567L38.2706 229.3L96.0039 229.7C151.337 229.967 153.871 229.967 158.937 227.433C168.404 222.5 176.004 210.633 174.671 202.367C173.871 197.567 169.871 188.633 168.537 188.633C168.137 188.633 166.537 189.433 165.204 190.233Z"
        fill="currentColor" />
</svg>